# xmcd
#
# Track frame offsets: 
#        150
#        4066
#        18360
#        37399
#        47200
#        63453
#        70668
#        86317
#        105301
#        122144
#        136803
#        156164
#        164256
#        182669
#        198941
#        208428
#        227258
#
# Disc length: 3072 seconds
#
# Revision: 0
# Processed by: cddbd v1.5.2PL0 Copyright (c) Steve Scherf et al.
# Submitted via: ExactAudioCopy v1.3
#
DISCID=e00bfe11
DTITLE=Казачья Воля - Славьтесь, славьтесь, казачки!
DYEAR=2002
DGENRE=Folk
TTITLE0=Многие лета
TTITLE1=Дон Иванович
TTITLE2=Поехал казак во чужбину...
TTITLE3=Славьтесь, славьтесь, казачки...
TTITLE4=Прощай, дивный Кавказ...
TTITLE5=Всем, всем казак был доволен...
TTITLE6=Проснётся день красы моей...
TTITLE7=По горам Карпатским...
TTITLE8=Баклановцы
TTITLE9=Когда мы были на войне...
TTITLE10=На восходе было солнце ясное
TTITLE11=Я весёлый взор заметил...
TTITLE12=Отчего так быстро вянут розы...
TTITLE13=Не для меня...
TTITLE14=Как донские казаки...
TTITLE15=Верила, верила, верю...
TTITLE16=Чарочка моя
EXTD=
EXTT0=
EXTT1=
EXTT2=
EXTT3=
EXTT4=
EXTT5=
EXTT6=
EXTT7=
EXTT8=
EXTT9=
EXTT10=
EXTT11=
EXTT12=
EXTT13=
EXTT14=
EXTT15=
EXTT16=
PLAYORDER=
